{
  "asset": {
    "version": "2.0",
    "generator": "THREE.GLTFExporter"
  },
  "scenes": [
    {
      "nodes": [
        0
      ]
    }
  ],
  "scene": 0,
  "nodes": [
    {
      "children": [
        11
      ],
      "matrix": [
        0.01,
        0,
        0,
        0,
        0,
        0.01,
        0,
        0,
        0,
        0,
        0.01,
        0,
        0,
        0,
        0,
        1
      ]
    },
    {
      "matrix": [
        0.8688238304470027,
        0,
        -0.4951213504257294,
        0,
        0,
        1,
        0,
        0,
        0.4951213504257294,
        0,
        0.8688238304470027,
        0,
        0,
        0,
        0,
        1
      ],
      "name": "Directional Light 2",
      "extensions": {
        "KHR_lights_punctual": {
          "light": 0
        }
      }
    },
    {
      "matrix": [
        -0.645323449542193,
        -0.04126204995740868,
        -0.11117340389544568,
        0,
        0.020248449580757,
        0.6232250511209058,
        -0.2205135873635967,
        0,
        0.06684869938155413,
        -0.11742816053464193,
        -0.2129619170845934,
        0,
        -4.825005206321105,
        -22.611748311617916,
        -38.973008417695766,
        0.9999999999999999
      ],
      "name": "Cube 3",
      "mesh": 0
    },
    {
      "matrix": [
        0.29173744580650446,
        -0.03712901567601374,
        -0.09537130273160403,
        0,
        0.029876360499770195,
        0.32177200557850366,
        -0.03251404134366855,
        0,
        0.09962982554631807,
        0.007535807507724916,
        0.27053073396320576,
        0,
        20.247610373292005,
        -0.18958065174600458,
        -0.3131517859238482,
        1
      ],
      "name": "Sphere",
      "mesh": 1
    },
    {
      "matrix": [
        -0.18244909057837516,
        -0.015044579530136933,
        -0.24285252513823596,
        0,
        0.005826447162688229,
        0.3187510401417678,
        -0.012775486609863818,
        0,
        0.21746139193886052,
        -0.00020762423759090876,
        -0.14216728531357906,
        0,
        -20.55474284203141,
        -0.11976527984014584,
        0.423319840604508,
        1
      ],
      "name": "Sphere",
      "mesh": 2
    },
    {
      "matrix": [
        1,
        0,
        0,
        0,
        0,
        1,
        0,
        0,
        0,
        0,
        1,
        0,
        -1.92196654438888,
        -2.7308147243728627,
        -40.39343027169531,
        1
      ],
      "name": "Group",
      "children": [
        3,
        4
      ]
    },
    {
      "matrix": [
        0.5504670470049108,
        -0.001557533877041901,
        -0.011415725932206133,
        0,
        0.0011509806133222136,
        0.5523690274302798,
        -0.019863526404067692,
        0,
        0.011585887579962373,
        0.019968081558254018,
        0.5559478562533846,
        0,
        -1.167796136847699,
        -1.1832954127276594,
        4.288794879074544,
        1
      ],
      "name": "heart_lowpoly 3",
      "mesh": 3
    },
    {
      "matrix": [
        -0.0595448122743827,
        0.01140447243227261,
        1.0569349808659607,
        0,
        -0.14878556861827844,
        1.033861714247296,
        -0.01953767880263474,
        0,
        -1.2775350259380294,
        -0.18517555750499845,
        -0.06997474309359761,
        0,
        483.2,
        -96,
        187.32,
        1
      ],
      "name": "Hurted Heart",
      "children": [
        2,
        5,
        6
      ]
    },
    {
      "matrix": [
        0.16980798959804283,
        0.19992023356702396,
        0.964985568223265,
        0,
        -0.7621729415802537,
        0.6473734680405918,
        0,
        0,
        -0.6247060539098162,
        -0.7354858891152185,
        0.26230297962627575,
        0,
        0,
        0,
        0,
        1
      ],
      "name": "Directional Light",
      "extensions": {
        "KHR_lights_punctual": {
          "light": 1
        }
      }
    },
    {
      "matrix": [
        -0.024116297238359508,
        3.469446951953614e-18,
        -0.9997091598097475,
        0,
        -0.053526427951352554,
        0.9985655983577078,
        0.001291234789554313,
        0,
        0.9982751753491018,
        0.05354200011685304,
        -0.024081704781995006,
        0,
        1309.6854707047548,
        -58.6817555862916,
        280.1402329301533,
        1
      ],
      "camera": 0
    },
    {
      "matrix": [
        1,
        0,
        0,
        0,
        0,
        1,
        0,
        0,
        0,
        0,
        1,
        0,
        0,
        1,
        0,
        1
      ],
      "name": "Default Ambient Light"
    },
    {
      "name": "Scene 1",
      "children": [
        1,
        7,
        8,
        9,
        10
      ]
    }
  ],
  "extensions": {
    "KHR_lights_punctual": {
      "lights": [
        {
          "name": "Directional Light 2",
          "color": [
            1,
            0.7656891795248671,
            0.6730546691044659
          ],
          "intensity": 1,
          "type": "directional"
        },
        {
          "name": "Directional Light",
          "color": [
            0.9160062812802194,
            0.6664336232271637,
            0.5320483458139796
          ],
          "intensity": 0.7,
          "type": "directional"
        }
      ]
    }
  },
  "bufferViews": [
    {
      "buffer": 0,
      "byteOffset": 0,
      "byteLength": 4224,
      "target": 34962,
      "byteStride": 12
    },
    {
      "buffer": 0,
      "byteOffset": 4224,
      "byteLength": 4224,
      "target": 34962,
      "byteStride": 12
    },
    {
      "buffer": 0,
      "byteOffset": 8448,
      "byteLength": 2112,
      "target": 34963
    },
    {
      "buffer": 0,
      "byteOffset": 10560,
      "byteLength": 50700,
      "target": 34962,
      "byteStride": 12
    },
    {
      "buffer": 0,
      "byteOffset": 61260,
      "byteLength": 50700,
      "target": 34962,
      "byteStride": 12
    },
    {
      "buffer": 0,
      "byteOffset": 111960,
      "byteLength": 33800,
      "target": 34962,
      "byteStride": 8
    },
    {
      "buffer": 0,
      "byteOffset": 145760,
      "byteLength": 48384,
      "target": 34963
    },
    {
      "buffer": 0,
      "byteOffset": 194144,
      "byteLength": 47424,
      "target": 34962,
      "byteStride": 12
    },
    {
      "buffer": 0,
      "byteOffset": 241568,
      "byteLength": 47424,
      "target": 34962,
      "byteStride": 12
    },
    {
      "buffer": 0,
      "byteOffset": 288992,
      "byteLength": 23712,
      "target": 34963
    },
    {
      "buffer": 0,
      "byteOffset": 312704,
      "byteLength": 21504,
      "target": 34962,
      "byteStride": 12
    },
    {
      "buffer": 0,
      "byteOffset": 334208,
      "byteLength": 21504,
      "target": 34962,
      "byteStride": 12
    },
    {
      "buffer": 0,
      "byteOffset": 355712,
      "byteLength": 10752,
      "target": 34963
    }
  ],
  "buffers": [
    {
      "byteLength": 366464,
      "uri": "data:application/octet-stream;base64,"
    }
  ],
  "accessors": [
    {
      "bufferView": 0,
      "componentType": 5126,
      "count": 352,
      "max": [
        13.54002571105957,
        6.4293999671936035,
        0.3853057026863098
      ],
      "min": [
        -13.778379440307617,
        -5.197022914886475,
        -6.309136390686035
      ],
      "type": "VEC3"
    },
    {
      "bufferView": 1,
      "componentType": 5126,
      "count": 352,
      "max": [
        0.977415919303894,
        0.9957952499389648,
        0.9684321880340576
      ],
      "min": [
        -0.9817440509796143,
        -0.9663063287734985,
        -0.9980182647705078
      ],
      "type": "VEC3"
    },
    {
      "bufferView": 2,
      "componentType": 5125,
      "count": 528,
      "max": [
        351
      ],
      "min": [
        0
      ],
      "type": "SCALAR"
    },
    {
      "bufferView": 3,
      "componentType": 5126,
      "count": 4225,
      "max": [
        11.176252365112305,
        14.714067459106445,
        14.45886516571045
      ],
      "min": [
        -11.176252365112305,
        -14.714067459106445,
        -14.45886516571045
      ],
      "type": "VEC3"
    },
    {
      "bufferView": 4,
      "componentType": 5126,
      "count": 4225,
      "max": [
        1,
        1,
        1
      ],
      "min": [
        -1,
        -1,
        -1
      ],
      "type": "VEC3"
    },
    {
      "bufferView": 5,
      "componentType": 5126,
      "count": 4225,
      "max": [
        1.0078125,
        1
      ],
      "min": [
        -0.0078125,
        0
      ],
      "type": "VEC2"
    },
    {
      "bufferView": 6,
      "componentType": 5123,
      "count": 24192,
      "max": [
        4224
      ],
      "min": [
        0
      ],
      "type": "SCALAR"
    },
    {
      "bufferView": 7,
      "componentType": 5126,
      "count": 3952,
      "max": [
        10.673453330993652,
        14.680169105529785,
        14.11557674407959
      ],
      "min": [
        -10.673453330993652,
        -14.684617042541504,
        -14.11557674407959
      ],
      "type": "VEC3"
    },
    {
      "bufferView": 8,
      "componentType": 5126,
      "count": 3952,
      "max": [
        1,
        1,
        1
      ],
      "min": [
        -1,
        -1,
        -1
      ],
      "type": "VEC3"
    },
    {
      "bufferView": 9,
      "componentType": 5125,
      "count": 5928,
      "max": [
        3951
      ],
      "min": [
        0
      ],
      "type": "SCALAR"
    },
    {
      "bufferView": 10,
      "componentType": 5126,
      "count": 1792,
      "max": [
        135.57443237304688,
        120.7027587890625,
        69.1912612915039
      ],
      "min": [
        -135.57443237304688,
        -119.73281860351562,
        -85.55616760253906
      ],
      "type": "VEC3"
    },
    {
      "bufferView": 11,
      "componentType": 5126,
      "count": 1792,
      "max": [
        0.9989436864852905,
        1,
        0.9992402195930481
      ],
      "min": [
        -0.998955488204956,
        -0.9999980330467224,
        -0.9997304081916809
      ],
      "type": "VEC3"
    },
    {
      "bufferView": 12,
      "componentType": 5125,
      "count": 2688,
      "max": [
        1791
      ],
      "min": [
        0
      ],
      "type": "SCALAR"
    }
  ],
  "meshes": [
    {
      "primitives": [
        {
          "mode": 4,
          "attributes": {
            "POSITION": 0,
            "NORMAL": 1
          },
          "extras": {
            "type": "SubdivGeometry",
            "parameters": {
              "width": 28.944165229797363,
              "height": 11.84997844696045,
              "depth": 8.01650458574295
            }
          },
          "indices": 2
        }
      ]
    },
    {
      "primitives": [
        {
          "mode": 4,
          "attributes": {
            "POSITION": 3,
            "NORMAL": 4,
            "TEXCOORD_0": 5
          },
          "extras": {
            "parameters": {
              "width": 22.35250411447255,
              "widthSegments": 64,
              "heightSegments": 64,
              "phiStart": 0,
              "phiLength": 6.283185307179586,
              "thetaStart": 0,
              "thetaLength": 180,
              "height": 29.428134884573907,
              "depth": 28.917729628700226,
              "type": "SphereGeometry"
            },
            "type": "SphereGeometry"
          },
          "indices": 6
        }
      ]
    },
    {
      "primitives": [
        {
          "mode": 4,
          "attributes": {
            "POSITION": 7,
            "NORMAL": 8
          },
          "extras": {
            "type": "SubdivGeometry",
            "parameters": {
              "width": 21.866058349609375,
              "height": 29.42813491821289,
              "depth": 28.917728424072266
            }
          },
          "indices": 9
        }
      ]
    },
    {
      "primitives": [
        {
          "mode": 4,
          "attributes": {
            "POSITION": 10,
            "NORMAL": 11
          },
          "extras": {
            "type": "SubdivGeometry",
            "parameters": {
              "width": 279.6076965332031,
              "height": 249.28128814697266,
              "depth": 156.2208480834961
            }
          },
          "indices": 12
        }
      ]
    }
  ],
  "cameras": [
    {
      "type": "orthographic",
      "orthographic": {
        "xmag": 3.825929041733241,
        "ymag": 2.2901687925867993,
        "zfar": 100000,
        "znear": 0
      }
    }
  ],
  "extensionsUsed": [
    "KHR_lights_punctual"
  ]
}